<svg xmlns="http://www.w3.org/2000/svg" viewBox="0 0 500 120" width="500" height="120" preserveAspectRatio="xMidYMid meet" role="img" aria-label="TableCast"><g fill="none" stroke="#ffffff" stroke-width="9" stroke-linecap="round" stroke-linejoin="round"><path d="M48 24H72M60 24V39M24 86V75a36 36 0 0 1 72 0V86M19 86H101M18 98H102M46 62V72M60 54V76M74 62V72"/></g><g transform="translate(144 84) scale(.034 -.034)" fill="#ffffff"><path transform="translate(0 0)" d="M44.6002197265625 1226.32421875V1490H1256.15771484375V1226.32421875H804.556396484375V0H497.12158203125V1226.32421875Z"/><path transform="translate(1301 0)" d="M427.4808349609375 -17.61993408203125Q321.94085693359375 -17.61993408203125 240.02081298828125 17.30010986328125Q158.10076904296875 52.22015380859375 110.95071411132812 122.37020874023438Q63.8006591796875 192.520263671875 63.8006591796875 297.520263671875Q63.8006591796875 387.4403076171875 96.87075805664062 446.8702087402344Q129.94085693359375 506.30010986328125 187.28094482421875 542.5799560546875Q244.62103271484375 578.8598022460938 319.3110656738281 597.7497253417969Q394.0010986328125 616.6396484375 476.240966796875 624.479736328125Q572.921142578125 634.159912109375 630.1111755371094 643.0498352050781Q687.3012084960938 651.9397583007812 712.0711975097656 669.0197143554688Q736.8411865234375 686.0996704101562 736.8411865234375 720.159912109375V726.9200439453125Q736.8411865234375 766.0208129882812 716.0909118652344 795.6714172363281Q695.3406372070312 825.322021484375 656.8800659179688 842.182373046875Q618.4194946289062 859.042724609375 564.398681640625 859.042724609375Q509.7579345703125 859.042724609375 468.3773193359375 841.8324279785156Q426.9967041015625 824.6221313476562 402.9463195800781 793.6916809082031Q378.89593505859375 762.76123046875 374.89593505859375 721.6407470703125H97.68017578125Q104.840087890625 831.0602416992188 162.53997802734375 910.8800659179688Q220.2398681640625 990.6998901367188 324.1495056152344 1034.4299011230469Q428.05914306640625 1078.159912109375 573.038330078125 1078.159912109375Q681.2376708984375 1078.159912109375 765.9972534179688 1053.4299011230469Q850.7568359375 1028.6998901367188 909.1965942382812 981.6199340820312Q967.6363525390625 934.5399780273438 997.7962646484375 867.5700988769531Q1027.9561767578125 800.6002197265625 1027.9561767578125 716.1204833984375V0H740.0810546875V148.9200439453125H736.0810546875Q708.44140625 97.42059326171875 667.12158203125 60.00054931640625Q625.8017578125 22.58050537109375 567.0816040039062 2.48028564453125Q508.3614501953125 -17.61993408203125 427.4808349609375 -17.61993408203125ZM508.718505859375 186.7579345703125Q579.7798461914062 186.7579345703125 631.5503845214844 212.91839599609375Q683.3209228515625 239.078857421875 711.1610107421875 283.95947265625Q739.0010986328125 328.840087890625 739.0010986328125 385.9605712890625V492.0416259765625Q726.3012084960938 485.2015380859375 705.2009887695312 478.82147216796875Q684.1007690429688 472.44140625 656.1303405761719 466.56134033203125Q628.159912109375 460.6812744140625 595.2694396972656 455.0312194824219Q562.3789672851562 449.38116455078125 526.55859375 443.921142578125Q476.358154296875 436.46112060546875 435.35760498046875 419.9309997558594Q394.3570556640625 403.40087890625 370.07666015625 375.7305603027344Q345.7962646484375 348.06024169921875 345.7962646484375 305.8795166015625Q345.7962646484375 268.759033203125 366.0865173339844 241.898681640625Q386.37677001953125 215.038330078125 422.957275390625 200.89813232421875Q459.53778076171875 186.7579345703125 508.718505859375 186.7579345703125Z"/><path transform="translate(2433 0)" d="M708.9967041015625 -22.159912109375Q639.916748046875 -22.159912109375 580.07666015625 -1.849945068359375Q520.236572265625 18.46002197265625 473.3663635253906 59.53997802734375Q426.49615478515625 100.61993408203125 396.05584716796875 162.159912109375H394.5958251953125V0H104.40087890625V1490H398.5958251953125V909.7196044921875H400.05584716796875Q434.05584716796875 967.0996704101562 480.196044921875 1004.2097473144531Q526.3362426757812 1041.31982421875 584.7464294433594 1059.7398681640625Q643.1566162109375 1078.159912109375 711.1566162109375 1078.159912109375Q846.4567260742188 1078.159912109375 948.6467590332031 1008.6199340820312Q1050.8367919921875 939.0799560546875 1108.3767700195312 815.3099670410156Q1165.916748046875 691.5399780273438 1165.916748046875 529.0799560546875Q1165.916748046875 363.840087890625 1109.1867370605469 239.80010986328125Q1052.4567260742188 115.7601318359375 949.9967041015625 46.80010986328125Q847.5366821289062 -22.159912109375 708.9967041015625 -22.159912109375ZM632.7787475585938 217.77655029296875Q704.799560546875 217.77655029296875 757.520263671875 254.40689086914062Q810.240966796875 291.0372314453125 839.44140625 360.677978515625Q868.641845703125 430.3187255859375 868.641845703125 529.0799560546875Q868.641845703125 628.3012084960938 839.44140625 697.4019775390625Q810.240966796875 766.5027465820312 757.520263671875 803.1330871582031Q704.799560546875 839.763427734375 632.7787475585938 839.763427734375Q558.5377807617188 839.763427734375 502.4671325683594 801.2929992675781Q446.396484375 762.8225708007812 415.49615478515625 693.2617797851562Q384.5958251953125 623.7009887695312 384.5958251953125 529.0799560546875Q384.5958251953125 434.9189453125 415.49615478515625 364.81817626953125Q446.396484375 294.7174072265625 502.4671325683594 256.2469787597656Q558.5377807617188 217.77655029296875 632.7787475585938 217.77655029296875Z"/><path transform="translate(3657 0)" d="M398.5958251953125 1490V0H104.40087890625V1490Z"/><path transform="translate(4160 0)" d="M586.2990112304688 -24Q426.439208984375 -24 307.4895935058594 46.730010986328125Q188.53997802734375 117.46002197265625 123.25027465820312 242.23001098632812Q57.9605712890625 367 57.9605712890625 527.0799560546875Q57.9605712890625 688.6199340820312 124.3603515625 813.3499450683594Q190.7601318359375 938.0799560546875 307.6697692871094 1009.0399780273438Q424.57940673828125 1080 576.4589233398438 1080Q692.9386596679688 1080 788.1883850097656 1040.2699890136719Q883.4381103515625 1000.5399780273438 952.3778686523438 927.3499450683594Q1021.317626953125 854.159912109375 1058.5974731445312 754.0098571777344Q1095.8773193359375 653.8598022460938 1095.8773193359375 533.0197143554688V453.62103271484375H163.0799560546875V641.7393188476562H953.8992309570312L820.961669921875 597.2190551757812Q820.961669921875 677.1401977539062 791.9112854003906 735.0410766601562Q762.8609008789062 792.9419555664062 709.6002197265625 824.2924499511719Q656.3395385742188 855.6429443359375 582.398681640625 855.6429443359375Q509.45782470703125 855.6429443359375 456.15716552734375 824.2924499511719Q402.85650634765625 792.9419555664062 373.8061218261719 735.0410766601562Q344.7557373046875 677.1401977539062 344.7557373046875 597.2190551757812V468.5213623046875Q344.7557373046875 387.06024169921875 374.15606689453125 325.73931884765625Q403.556396484375 264.41839599609375 459.6270446777344 230.68783569335938Q515.6976928710938 196.957275390625 594.9386596679688 196.957275390625Q652.6593627929688 196.957275390625 697.5098571777344 213.70755004882812Q742.3603515625 230.45782470703125 772.5706481933594 260.8482971191406Q802.7809448242188 291.23876953125 816.0810546875 331.65936279296875H1085.43701171875Q1065.9769897460938 226.8795166015625 995.957275390625 146.86965942382812Q925.9375610351562 66.85980224609375 820.0980224609375 21.429901123046875Q714.2584838867188 -24 586.2990112304688 -24Z"/><path transform="translate(5310 0)" d="M770.9003295898438 -24Q566.520263671875 -24 406.3904724121094 69.37020874023438Q246.26068115234375 162.74041748046875 154.63088989257812 335.16046142578125Q63.0010986328125 507.58050537109375 63.0010986328125 744Q63.0010986328125 982.4194946289062 154.40087890625 1155.1095275878906Q245.8006591796875 1327.799560546875 406.16046142578125 1420.8997802734375Q566.520263671875 1514 770.9003295898438 1514Q901.9397583007812 1514 1013.8893737792969 1475.2201538085938Q1125.8389892578125 1436.4403076171875 1212.1987915039062 1364.2705383300781Q1298.55859375 1292.1007690429688 1353.9085388183594 1191.0010986328125Q1409.2584838867188 1089.9014282226562 1427.0186157226562 964.8017578125H1116.123779296875Q1102.9835815429688 1030.682373046875 1072.8932189941406 1082.3428344726562Q1042.8028564453125 1134.0032958984375 998.682373046875 1169.6736145019531Q954.5618896484375 1205.3439331054688 898.101318359375 1223.8340759277344Q841.6407470703125 1242.32421875 775.2201538085938 1242.32421875Q648.4589233398438 1242.32421875 558.4879455566406 1181.2135925292969Q468.5169677734375 1120.1029663085938 420.556396484375 1008.3619995117188Q372.5958251953125 896.6210327148438 372.5958251953125 744Q372.5958251953125 592.3789672851562 420.2864074707031 481.13800048828125Q467.97698974609375 369.89703369140625 558.2179565429688 308.7864074707031Q648.4589233398438 247.67578125 775.2201538085938 247.67578125Q841.6407470703125 247.67578125 897.601318359375 265.89593505859375Q953.5618896484375 284.1160888671875 997.682373046875 319.8263854980469Q1041.8028564453125 355.53668212890625 1072.1232299804688 406.6971435546875Q1102.443603515625 457.85760498046875 1116.5838012695312 523.1982421875H1427.0186157226562Q1409.1785278320312 398.55859375 1353.8685607910156 297.7289123535156Q1298.55859375 196.89923095703125 1211.9288024902344 124.95947265625Q1125.2990112304688 53.01971435546875 1013.619384765625 14.509857177734375Q901.9397583007812 -24 770.9003295898438 -24Z"/><path transform="translate(6797 0)" d="M427.4808349609375 -17.61993408203125Q321.94085693359375 -17.61993408203125 240.02081298828125 17.30010986328125Q158.10076904296875 52.22015380859375 110.95071411132812 122.37020874023438Q63.8006591796875 192.520263671875 63.8006591796875 297.520263671875Q63.8006591796875 387.4403076171875 96.87075805664062 446.8702087402344Q129.94085693359375 506.30010986328125 187.28094482421875 542.5799560546875Q244.62103271484375 578.8598022460938 319.3110656738281 597.7497253417969Q394.0010986328125 616.6396484375 476.240966796875 624.479736328125Q572.921142578125 634.159912109375 630.1111755371094 643.0498352050781Q687.3012084960938 651.9397583007812 712.0711975097656 669.0197143554688Q736.8411865234375 686.0996704101562 736.8411865234375 720.159912109375V726.9200439453125Q736.8411865234375 766.0208129882812 716.0909118652344 795.6714172363281Q695.3406372070312 825.322021484375 656.8800659179688 842.182373046875Q618.4194946289062 859.042724609375 564.398681640625 859.042724609375Q509.7579345703125 859.042724609375 468.3773193359375 841.8324279785156Q426.9967041015625 824.6221313476562 402.9463195800781 793.6916809082031Q378.89593505859375 762.76123046875 374.89593505859375 721.6407470703125H97.68017578125Q104.840087890625 831.0602416992188 162.53997802734375 910.8800659179688Q220.2398681640625 990.6998901367188 324.1495056152344 1034.4299011230469Q428.05914306640625 1078.159912109375 573.038330078125 1078.159912109375Q681.2376708984375 1078.159912109375 765.9972534179688 1053.4299011230469Q850.7568359375 1028.6998901367188 909.1965942382812 981.6199340820312Q967.6363525390625 934.5399780273438 997.7962646484375 867.5700988769531Q1027.9561767578125 800.6002197265625 1027.9561767578125 716.1204833984375V0H740.0810546875V148.9200439453125H736.0810546875Q708.44140625 97.42059326171875 667.12158203125 60.00054931640625Q625.8017578125 22.58050537109375 567.0816040039062 2.48028564453125Q508.3614501953125 -17.61993408203125 427.4808349609375 -17.61993408203125ZM508.718505859375 186.7579345703125Q579.7798461914062 186.7579345703125 631.5503845214844 212.91839599609375Q683.3209228515625 239.078857421875 711.1610107421875 283.95947265625Q739.0010986328125 328.840087890625 739.0010986328125 385.9605712890625V492.0416259765625Q726.3012084960938 485.2015380859375 705.2009887695312 478.82147216796875Q684.1007690429688 472.44140625 656.1303405761719 466.56134033203125Q628.159912109375 460.6812744140625 595.2694396972656 455.0312194824219Q562.3789672851562 449.38116455078125 526.55859375 443.921142578125Q476.358154296875 436.46112060546875 435.35760498046875 419.9309997558594Q394.3570556640625 403.40087890625 370.07666015625 375.7305603027344Q345.7962646484375 348.06024169921875 345.7962646484375 305.8795166015625Q345.7962646484375 268.759033203125 366.0865173339844 241.898681640625Q386.37677001953125 215.038330078125 422.957275390625 200.89813232421875Q459.53778076171875 186.7579345703125 508.718505859375 186.7579345703125Z"/><path transform="translate(7929 0)" d="M542.5980224609375 -25.61993408203125Q405.8389892578125 -25.61993408203125 298.9895935058594 16.509857177734375Q192.14019775390625 58.6396484375 127.85049438476562 138.72946166992188Q63.560791015625 218.81927490234375 54.40087890625 331.65936279296875H344.4359130859375Q352.35595703125 263.038330078125 402.1264953613281 224.10787963867188Q451.89703369140625 185.17742919921875 537.51806640625 185.17742919921875Q619.9791870117188 185.17742919921875 666.7398681640625 216.32803344726562Q713.5005493164062 247.4786376953125 713.5005493164062 296.41949462890625Q713.5005493164062 338.06024169921875 677.6002197265625 363.8006591796875Q641.6998901367188 389.54107666015625 576.6396484375 402.30120849609375L391.520263671875 437.98138427734375Q238.04052734375 468.12158203125 158.220703125 545.8214721679688Q78.40087890625 623.5213623046875 78.40087890625 745.5410766601562Q78.40087890625 845.8006591796875 132.84063720703125 920.700439453125Q187.2803955078125 995.6002197265625 287.81982421875 1036.9901428222656Q388.3592529296875 1078.3800659179688 525.6582641601562 1078.3800659179688Q662.6571655273438 1078.3800659179688 764.736572265625 1034.7201538085938Q866.8159790039062 991.0602416992188 924.5257263183594 911.2803955078125Q982.2354736328125 831.5005493164062 985.2354736328125 721.1007690429688H712.31982421875Q711.31982421875 784.5816040039062 661.9293518066406 826.6221313476562Q612.5388793945312 868.6626586914062 534.2979125976562 868.6626586914062Q458.3570556640625 868.6626586914062 414.93646240234375 836.5120544433594Q371.515869140625 804.3614501953125 371.515869140625 757.4205932617188Q371.515869140625 716.31982421875 405.5262756347656 690.0794067382812Q439.53668212890625 663.8389892578125 499.8773193359375 651.23876953125L700.1160888671875 612.3187255859375Q860.2157592773438 580.6385498046875 935.8055725097656 510.218505859375Q1011.3953857421875 439.7984619140625 1011.3953857421875 323.09857177734375Q1011.3953857421875 217.53887939453125 951.9156494140625 139.16921997070312Q892.4359130859375 60.799560546875 786.6264953613281 17.589813232421875Q680.8170776367188 -25.61993408203125 542.5980224609375 -25.61993408203125Z"/><path transform="translate(8994 0)" d="M710.6549682617188 1056V824.6834716796875H17.69989013671875V1056ZM200.30010986328125 1344H494.49505615234375V326.1971435546875Q494.49505615234375 272.7568359375 516.2152099609375 252.03668212890625Q537.9353637695312 231.3165283203125 597.5355834960938 231.3165283203125Q622.6954956054688 231.3165283203125 657.295166015625 231.3165283203125Q691.8948364257812 231.3165283203125 710.6549682617188 231.3165283203125V0Q684.114990234375 0 636.1056823730469 0.0Q588.0963745117188 0 539.4172973632812 0Q364.53887939453125 0 282.41949462890625 68.1396484375Q200.30010986328125 136.279296875 200.30010986328125 280.1182861328125Z"/></g></svg>
